<?xml version="1.0" encoding="UTF-8" standalone="no"?>
<!-- Created with Inkscape (http://www.inkscape.org/) -->

<svg
   xmlns:dc="http://purl.org/dc/elements/1.1/"
   xmlns:cc="http://creativecommons.org/ns#"
   xmlns:rdf="http://www.w3.org/1999/02/22-rdf-syntax-ns#"
   xmlns:svg="http://www.w3.org/2000/svg"
   xmlns="http://www.w3.org/2000/svg"
   xmlns:sodipodi="http://sodipodi.sourceforge.net/DTD/sodipodi-0.dtd"
   xmlns:inkscape="http://www.inkscape.org/namespaces/inkscape"
   width="300"
   height="300"
   id="svg3075"
   version="1.1"
   inkscape:version="0.48.4 r9939"
   sodipodi:docname="islam.svg">
  <defs
     id="defs3077" />
  <sodipodi:namedview
     id="base"
     pagecolor="#ffffff"
     bordercolor="#666666"
     borderopacity="1.0"
     inkscape:pageopacity="0.0"
     inkscape:pageshadow="2"
     inkscape:zoom="0.35"
     inkscape:cx="375"
     inkscape:cy="291.42857"
     inkscape:document-units="px"
     inkscape:current-layer="layer1"
     showgrid="false"
     inkscape:snap-page="true"
     width="764px"
     inkscape:window-width="823"
     inkscape:window-height="615"
     inkscape:window-x="543"
     inkscape:window-y="101"
     inkscape:window-maximized="0" />
  <metadata
     id="metadata3080">
    <rdf:RDF>
      <cc:Work
         rdf:about="">
        <dc:format>image/svg+xml</dc:format>
        <dc:type
           rdf:resource="http://purl.org/dc/dcmitype/StillImage" />
        <dc:title />
      </cc:Work>
    </rdf:RDF>
  </metadata>
  <g
     inkscape:label="Layer 1"
     inkscape:groupmode="layer"
     id="layer1"
     transform="translate(0,-752.36547)">
    <path
       d="m 282.56446,884.00415 c 0,5.41388 -2.08019,8.12206 -6.2283,8.12206 -3.24783,0 -4.87176,-1.4424 -4.87176,-4.33209 0,-2.16606 0.99104,-3.24785 2.97801,-3.24785 1.62637,0 2.43588,0.90519 2.43588,2.70572 0,1.44731 -0.72365,2.34757 -2.16605,2.70817 0.71875,0.18153 1.25842,0.27229 1.62392,0.27229 3.06632,0 4.60439,-1.98452 4.60439,-5.95601 0,-6.13262 -2.0802,-9.20384 -6.22831,-9.20384 -2.34756,0 -3.43182,1.80789 -3.24784,5.41388 -1.80789,-1.0818 -2.70816,-2.70572 -2.70816,-4.87177 0,-3.06631 1.80054,-4.60437 5.41389,-4.60437 0.54211,0 0.99103,0.0958 1.35653,0.27229 -4.15302,-1.98207 -6.2283,-5.14406 -6.2283,-9.47615 0,-3.06631 0.81441,-5.31821 2.43834,-6.76551 -0.18153,3.78996 1.57731,8.89231 5.27897,15.29478 3.69429,6.40982 5.54879,10.96023 5.54879,13.6684 m -2.98045,9.20385 c -2.34757,1.98697 -5.68126,2.98045 -10.01336,2.98045 -5.41389,0 -8.1196,-3.52258 -8.1196,-10.56039 l 0,-37.6249 c 0,-4.87175 -1.17991,-7.84731 -3.52259,-8.9291 l 0,-0.54213 c 2.52419,-1.44238 5.50466,-4.15056 8.93648,-8.12206 l 0.53966,0 0,52.78478 c 0,6.67965 2.43589,10.01335 7.30764,10.01335 l 4.87177,0 z m -1.62393,8.93647 c -2.52909,2.70571 -4.78099,8.56605 -6.76551,17.59084 -1.80545,7.75899 -4.51361,12.5449 -8.1196,14.35034 -0.90517,0.54213 -1.89867,0.80951 -2.98045,0.80951 -3.78997,0 -5.68373,-1.80544 -5.68373,-5.41388 0,-2.52911 1.08425,-3.78997 3.25029,-3.78997 1.98208,0 2.97555,0.90026 2.97555,2.70817 0,1.80055 -0.90762,2.70572 -2.70817,2.70572 -0.54212,0 -0.99102,-0.0907 -1.35162,-0.26739 0.54211,1.4424 1.80299,2.16605 3.78997,2.16605 1.98451,0 3.74334,-1.08425 5.28141,-3.25029 1.52826,-2.1636 2.2985,-4.24379 2.2985,-6.22831 0,-3.24784 -1.17745,-4.87175 -3.52258,-4.87175 -1.26331,0 -2.61494,0.90027 -4.05733,2.70816 -0.18153,-0.54213 -0.27229,-1.08425 -0.27229,-1.62636 0,-3.61089 1.62391,-5.41389 4.87175,-5.41389 1.803,0 3.42692,0.99348 4.87422,2.98045 -0.72365,-1.62392 -1.08425,-3.24784 -1.08425,-4.87175 0,-2.34758 0.94933,-4.60438 2.84553,-6.77042 1.89377,-2.16606 4.01075,-3.33861 6.35831,-3.51523 m -11.90956,52.51001 c -2.53154,2.52419 -5.05574,8.11961 -7.57993,16.78378 -1.98942,7.57749 -4.87422,12.18186 -8.66417,13.80578 -0.7212,0.3606 -1.53316,0.54212 -2.43344,0.54212 -3.78997,0 -5.68617,-1.80544 -5.68617,-5.41388 0,-2.34757 1.08181,-3.52013 3.24784,-3.52013 1.80544,0 2.70817,0.81442 2.70817,2.43834 0,1.80054 -0.90273,2.70571 -2.70817,2.70571 -0.35814,0 -0.80951,-0.18153 -1.35164,-0.53967 0.54213,1.80054 1.89377,2.70572 4.05981,2.70572 1.98207,0 3.74581,-1.0818 5.27897,-3.24784 1.53315,-2.16605 2.30096,-4.24623 2.30096,-6.22829 0,-3.07124 -1.08425,-4.59948 -3.25029,-4.59948 -1.26333,0 -2.61495,0.80951 -4.05735,2.43342 -0.18152,-0.54213 -0.27229,-0.99103 -0.27229,-1.35163 0,-3.42937 1.62392,-5.14405 4.87176,-5.14405 1.80054,0 3.42446,0.99103 4.87176,2.97801 -0.53966,-1.44484 -0.8095,-2.88724 -0.8095,-4.32964 0,-2.52909 0.98857,-4.83005 2.97555,-6.90534 1.98452,-2.07282 4.15055,-3.11293 6.49813,-3.11293 m -10.2881,-115.58042 c 0,5.22991 -2.07282,7.84731 -6.22338,7.84731 -3.42937,0 -5.14651,-1.4424 -5.14651,-4.33209 0,-1.98206 0.99348,-2.97555 2.98045,-2.97555 1.803,0 2.70818,0.80951 2.70818,2.43343 0,1.4473 -0.72365,2.35003 -2.16605,2.70816 0.71875,0.36305 1.26087,0.54213 1.62393,0.54213 2.88478,0 4.33207,-1.98452 4.33207,-5.95601 0,-2.16604 -0.59117,-4.28303 -1.75883,-6.36321 -1.17992,-2.07038 -2.75477,-3.10802 -4.7393,-3.10802 -2.52909,0 -3.6992,1.8913 -3.52013,5.68127 -1.80298,-1.0818 -2.70816,-2.70572 -2.70816,-4.87177 0,-3.60842 2.2568,-5.23235 6.77042,-4.87421 -4.69515,-1.80054 -7.03781,-5.04838 -7.03781,-9.74352 0,-2.88478 0.71875,-5.05084 2.16605,-6.49813 0.17661,3.97148 2.34266,9.16215 6.49569,15.56706 4.15056,6.40492 6.22338,11.05836 6.22338,13.94315 m 24.636,95.27897 -37.35507,37.35752 c -2.53155,2.5242 -3.78996,5.05084 -3.78996,7.57994 0,1.80054 1.80054,4.41794 5.41388,7.84731 -3.07122,-0.18153 -6.13753,-1.80545 -9.20385,-4.87177 -1.44731,-1.44729 -2.16605,-3.15707 -2.16605,-5.14159 0,-2.70816 1.26088,-5.41389 3.78997,-8.12205 l 26.79713,-26.5273 c 2.70573,-2.8897 4.06225,-5.32313 4.06225,-7.30764 l 0,-1.35409 0.26739,-0.54213 c 1.98453,0.54213 3.96904,0.81442 5.95602,0.81442 0.71873,0 2.70816,-0.0958 5.956,-0.27229 l 0.27229,0.53967 z m -48.45268,-37.08277 c 0,-1.62392 -0.72364,-2.43834 -2.16603,-2.43834 -1.62393,0 -2.43834,0.81442 -2.43834,2.43834 0,1.62392 0.81441,2.43341 2.43834,2.43341 1.44239,0 2.16603,-0.80949 2.16603,-2.43341 m -21.11341,-20.84604 c 0,-1.62391 -0.81442,-2.43343 -2.43833,-2.43343 -1.62392,0 -2.43589,0.80952 -2.43589,2.43343 0,1.4473 0.81197,2.16604 2.43589,2.16604 1.62391,0 2.43833,-0.71874 2.43833,-2.16604 m 25.44551,-77.14602 c 0,3.78998 -1.80545,5.68618 -5.41389,5.68618 -2.34757,0 -3.52258,-1.08181 -3.52258,-3.24784 0,-1.80055 0.81441,-2.70572 2.43834,-2.70572 1.80298,0 2.70816,0.90517 2.70816,2.70572 0,0.3655 -0.18153,0.80951 -0.54213,1.35164 1.80299,-0.54213 2.70817,-1.89377 2.70817,-4.05736 0,-1.98452 -1.08425,-3.74335 -3.24784,-5.28142 -2.16604,-1.52825 -4.24623,-2.29851 -6.23075,-2.29851 -3.06876,0 -4.59948,1.08178 -4.59948,3.24784 0,1.26578 0.81197,2.61495 2.4359,4.05735 -0.54213,0.18152 -0.9935,0.27474 -1.35164,0.27474 -3.43182,0 -5.14651,-1.62638 -5.14651,-4.87421 0,-1.80054 0.99349,-3.42446 2.98046,-4.87176 -1.44729,0.54211 -2.88969,0.8095 -4.33208,0.8095 -2.52911,0 -4.83251,-0.98614 -6.90288,-2.97555 -2.0802,-1.98452 -3.11538,-4.14811 -3.11538,-6.49568 2.52664,2.52909 8.12204,5.05329 16.78377,7.57748 7.57994,1.98942 12.1843,4.87422 13.80823,8.66417 0.3606,0.72365 0.54213,1.53316 0.54213,2.43343 M 209.2084,954.65448 c 0,-1.62391 -0.90517,-2.43341 -2.70816,-2.43341 -1.62392,0 -2.43833,0.8095 -2.43833,2.43341 0,1.80545 0.81441,2.70572 2.43833,2.70572 1.80299,0 2.70816,-0.90027 2.70816,-2.70572 m -0.27472,-29.77268 c 0,-1.62392 -0.90519,-2.43833 -2.70573,-2.43833 -1.62392,0 -2.43342,0.81441 -2.43342,2.43833 0,1.80054 0.90027,2.70817 2.70571,2.70817 1.62392,0 2.43344,-0.90763 2.43344,-2.70817 m -1.08181,-84.72595 c 0,-1.80054 -0.90518,-2.70817 -2.70816,-2.70817 -1.62393,0 -2.43344,0.90763 -2.43344,2.70817 0,1.62392 0.80951,2.43343 2.43344,2.43343 1.80298,0 2.70816,-0.80951 2.70816,-2.43343 m 27.34171,44.9301 -35.18902,0 0,-8.92912 c 0,-2.34266 0.76045,-4.37379 2.2985,-6.09091 1.53317,-1.71468 3.38276,-2.5708 5.54881,-2.5708 l 2.70572,0 c -0.36305,-2.70817 -1.34919,-4.50871 -2.9731,-5.41635 l 0,-0.53967 c 2.34266,-1.26086 5.2299,-3.88072 8.66172,-7.85221 l 0.54212,0 0,24.90337 2.97312,0 0,-25.4455 c 0,-4.32718 -1.08181,-7.03289 -3.24786,-8.11715 l 0,-0.53967 c 1.62393,-1.08425 4.50871,-3.97393 8.66173,-8.66417 l 0.81688,0 0,42.76649 2.97309,0 0,-35.18657 c 0,-4.32963 -1.0818,-7.0378 -3.24784,-8.11959 l 0,-0.54213 c 1.80299,-1.08179 4.69023,-3.96659 8.66172,-8.66173 l 0.81441,0 0,59.00571 z m 1.89376,107.46573 c -3.97148,0.17662 -9.15969,2.34266 -15.56706,6.49568 -6.40492,4.15054 -11.05346,6.23074 -13.93579,6.23074 -5.23727,0 -7.85468,-2.0802 -7.85468,-6.23074 0,-3.42937 1.4424,-5.13914 4.3321,-5.13914 1.98451,0 2.98045,0.98612 2.98045,2.97555 0,1.80054 -0.81441,2.70572 -2.43833,2.70572 -1.4473,0 -2.34756,-0.72366 -2.70816,-2.16605 -0.36306,0.71875 -0.53968,1.26087 -0.53968,1.62392 0,2.88484 1.98207,4.33204 5.95356,4.33204 2.16604,0 4.28303,-0.5887 6.36321,-1.7588 2.07038,-1.1725 3.11537,-2.75477 3.11537,-4.73683 0,-2.53155 -1.89865,-3.6992 -5.68862,-3.51767 1.08426,-1.80544 2.70817,-2.70572 4.87421,-2.70572 3.60598,0 5.22991,2.24945 4.87177,6.76306 1.80054,-4.69514 5.04838,-7.0378 9.74596,-7.0378 2.88234,0 5.04839,0.71875 6.49569,2.16604 m 23.54929,-84.18382 -41.68469,41.68716 -24.90339,-24.90584 6.49568,-6.49567 c 1.62638,-1.62393 3.6943,-2.43344 6.22585,-2.43344 2.1636,0 4.60438,1.35164 7.31009,4.05735 1.26088,-1.62391 1.89375,-3.15708 1.89375,-4.59947 0,-0.36305 -0.0932,-0.81441 -0.26982,-1.35653 l 0.26982,-0.26739 c 2.1636,0.54213 4.14811,0.80951 5.95356,0.80951 0.71875,0 2.70817,-0.18152 5.95601,-0.54212 l 0.54212,0.54212 -17.59328,17.59819 2.16604,2.16605 17.59328,-17.86559 c 2.70572,-2.53154 4.06226,-4.69758 4.06226,-6.49813 0,-0.36305 -0.0955,-0.90516 -0.27474,-1.62391 l 0.27474,-0.54212 c 1.62393,0.54212 3.24785,0.80951 4.86686,0.80951 -0.54213,0 1.89866,-0.18153 7.31254,-0.53968 l 0.53967,0.27229 -30.31727,30.31726 2.43834,2.16604 24.63109,-24.63599 c 2.5242,-2.70572 3.78997,-4.87176 3.78997,-6.49569 0,-0.3655 -0.0909,-0.99347 -0.27229,-1.89374 l 0.27229,-0.27229 c 1.80055,0.54212 3.51767,0.81441 5.1416,0.81441 -0.18388,0 2.16604,-0.18153 7.03781,-0.54212 l 0.54211,0.26983 z M 237.62947,801.98392 c -0.18388,3.07122 -1.8079,6.13753 -4.87421,9.20384 -1.44731,1.44731 -3.15708,2.16606 -5.13915,2.16606 -2.70817,0 -5.41389,-1.25842 -8.12206,-3.78997 l -26.5273,-26.79713 c -2.88969,-2.70573 -5.32802,-4.06226 -7.31255,-4.06226 -0.36305,0 -0.80949,0.0958 -1.35162,0.27473 l -0.53968,-0.54211 c 0.53968,-1.98453 0.80952,-3.96659 0.80952,-5.95602 0,-0.71874 -0.0909,-2.70571 -0.26984,-5.95601 l 0.54213,-0.27228 37.35751,37.35752 c 2.5242,2.5291 5.04839,3.78751 7.57749,3.78751 1.80298,0 4.41794,-1.80054 7.84976,-5.41388 m -59.55519,38.17193 c 0,-1.62392 -0.90518,-2.43834 -2.70572,-2.43834 -1.62392,0 -2.43342,0.90519 -2.43342,2.70573 0,1.62392 0.8095,2.44078 2.43342,2.44078 1.80054,0 2.70572,-0.90273 2.70572,-2.70817 m -5.41388,117.74647 c 0,-1.62391 -0.80952,-2.43342 -2.43343,-2.43342 -1.44731,0 -2.16604,0.80951 -2.16604,2.43342 0,1.62393 0.71873,2.43835 2.16604,2.43835 1.62391,0 2.43343,-0.81442 2.43343,-2.43835 m 47.91544,26.80206 -59.0106,0 0,-35.19149 8.92911,0 c 2.34512,0 4.37625,0.7678 6.09583,2.30097 1.70977,1.53315 2.56834,3.3803 2.56834,5.54634 l 0,2.70818 c 2.70572,-0.36551 4.50872,-1.35164 5.4139,-2.97555 l 0.53967,0 c 1.26086,2.34266 3.88072,5.23235 7.85466,8.66172 l 0,0.54212 -24.90582,0 0,2.97555 25.4455,0 c 4.33209,0 7.0378,-1.08425 8.12206,-3.24784 l 0.54212,0 c 1.08179,1.62392 3.96657,4.50626 8.66172,8.66174 l 0,0.8144 -42.7714,0 0,2.97555 35.19147,0 c 4.33209,0 7.0378,-1.08424 8.12206,-3.24784 l 0.53967,0 c 1.08424,1.80055 3.96659,4.69024 8.66171,8.66173 l 0,0.81442 z m 18.4028,-174.86578 0,9.20384 -79.85173,79.85174 -0.26984,-0.27231 c 0.54213,-1.80053 0.80951,-3.8758 0.80951,-6.22338 0,-2.52419 -0.35814,-5.23236 -1.0818,-8.12205 l 0.27229,-0.27229 c 1.08425,0.18153 1.89376,0.27229 2.43344,0.27229 2.16603,0 4.42284,-1.17256 6.77042,-3.52013 l 24.90582,-24.90584 c 0.53968,-0.53967 0.80951,-1.16765 0.80951,-1.89129 0,-0.90027 -0.45136,-1.35164 -1.35163,-1.35164 -0.36551,0 -0.90517,0.3606 -1.62392,1.07935 l -18.94983,18.94736 c -2.16604,2.16606 -4.7859,3.24785 -7.85221,3.24785 -1.80545,0 -3.42937,-0.35815 -4.87176,-1.08179 l 0,-6.49568 c 0.90027,0.36304 2.07282,0.53966 3.52013,0.53966 2.34266,0 4.41794,-0.90026 6.22339,-2.70572 l 17.86803,-17.86067 c 1.43994,-1.26576 3.06631,-1.89865 4.87176,-1.89865 2.34266,0 4.78099,1.17502 7.3101,3.52258 l 2.16604,-2.16604 c -2.8897,-2.70818 -4.32964,-5.14651 -4.32964,-7.31255 0,-2.5242 0.80951,-4.59947 2.43342,-6.2234 l 5.95357,-6.22829 7.85466,7.85222 9.20385,-9.20385 c -1.26577,0.36549 -2.70817,0.54213 -4.33209,0.54213 -8.48511,0 -15.97426,-2.5242 -22.46994,-7.57994 l 0,-8.1196 c 4.32962,3.42937 8.66172,5.77693 12.99381,7.0378 l 3.78997,-3.52258 -16.78378,-16.50903 c -2.52911,-2.70817 -4.69515,-4.06226 -6.49815,-4.06226 -0.36305,0 -0.90516,0.18153 -1.62391,0.53967 l -0.53967,-0.53967 c 0.53967,-1.98451 0.81441,-3.96904 0.81441,-5.956 0,-0.71875 -0.0955,-2.61252 -0.27474,-5.68372 l 0.54212,-0.53968 33.29772,33.29282 -4.60438,4.33209 0.54212,0 c 7.75656,0.18153 15.06911,-3.15217 21.92293,-10.01335 m -38.43441,17.86556 -24.90338,24.90338 -6.49569,-6.49567 c -1.6239,-1.62393 -2.43832,-3.69921 -2.43832,-6.2283 0,-2.16606 1.35409,-4.59947 4.06225,-7.30764 -1.62393,-1.26088 -3.16198,-1.89622 -4.60438,-1.89622 -0.3655,0 -0.80951,0.0958 -1.35163,0.27229 l -0.27228,-0.27229 c 0.53966,-2.16604 0.8144,-4.15056 0.8144,-5.95601 0,-0.71874 -0.18152,-2.70816 -0.54212,-5.956 l 0.54212,-0.53968 17.59329,17.59575 2.1636,-2.16359 -17.86558,-17.5982 c -2.5291,-2.70816 -4.69514,-4.0598 -6.49568,-4.0598 -0.3606,0 -0.90027,0.0932 -1.62392,0.26984 l -0.54213,-0.26984 c 0.54213,-1.62392 0.81442,-3.24784 0.81442,-4.87176 0,0.54212 -0.18153,-1.89621 -0.54213,-7.3101 l 0.26984,-0.54212 30.31726,30.31727 2.16605,-2.43342 -24.63109,-24.636 c -2.70817,-2.5242 -4.87177,-3.78997 -6.49813,-3.78997 -0.36306,0 -0.99594,0.0958 -1.89622,0.27474 l -0.26738,-0.27474 c 0.53967,-1.80055 0.80951,-3.51522 0.80951,-5.13915 0,0.18153 -0.18387,-2.16604 -0.54213,-7.04026 l 0.27229,-0.53966 41.68716,41.68715 z m 74.4403,71.99951 -6.49568,6.49814 -113.1519,0 0,-0.54211 c 3.78996,-1.80545 7.12856,-5.23728 10.01825,-10.28567 l 0.53968,0 c 1.44239,2.8848 4.41795,4.32964 8.93155,4.32964 l 34.92164,0 c 1.62639,0 2.4359,-0.53967 2.4359,-1.62391 0,-1.0818 -0.80951,-1.62392 -2.4359,-1.62392 l -26.52729,0 c -5.41388,0 -9.02723,-2.43342 -10.82777,-7.30519 l 4.59947,-4.60438 c 1.44239,3.6109 4.23888,5.41389 8.39434,5.41389 l 25.44551,0 c 4.87177,0 7.30519,2.61986 7.30519,7.85222 l 0,1.89129 2.98045,0 0,-3.24783 c 0,-2.16604 0.85367,-4.01565 2.56835,-5.5488 1.71469,-1.53316 3.74581,-2.29851 6.09339,-2.29851 l 8.38943,0 0,11.09514 12.99381,0 c -3.42936,-2.16358 -6.49568,-5.77202 -9.20385,-10.82775 -2.52909,-4.50872 -4.15301,-8.92911 -4.87176,-13.26121 l 5.68128,-5.68617 c 0.72363,5.41388 2.16603,10.19979 4.33207,14.3479 l 5.14651,0 0,-23.55175 c 0,-4.33209 -1.08425,-7.12611 -3.25029,-8.38944 l 0,-0.54213 c 2.34266,-1.26086 5.23235,-3.88072 8.66417,-7.8473 l 0.53967,0 0,46.82875 -6.22829,0 c 5.59295,5.95356 13.26855,8.9291 23.01207,8.9291 M 191.61022,1021.245 c -3.78997,-0.1815 -8.88741,1.5773 -15.29478,5.2815 -6.40492,3.6918 -10.96024,5.5463 -13.6684,5.5463 -5.41388,0 -8.11961,-2.0728 -8.11961,-6.2234 0,-3.2478 1.4424,-4.8718 4.32964,-4.8718 2.16606,0 3.25029,0.9862 3.25029,2.9756 0,1.6239 -0.90763,2.4383 -2.70816,2.4383 -1.44731,0 -2.34757,-0.7236 -2.70817,-2.166 -0.18153,0.7187 -0.27229,1.2609 -0.27229,1.6239 0,3.0663 1.98452,4.5995 5.95601,4.5995 6.13262,0 9.20384,-2.0729 9.20384,-6.2234 0,-2.3476 -1.80544,-3.4294 -5.41388,-3.2479 1.0818,-1.8054 2.70572,-2.7081 4.87177,-2.7081 3.06631,0 4.60437,1.803 4.60437,5.4139 0,0.5421 -0.0955,0.9885 -0.27229,1.3516 1.98207,-4.153 5.14405,-6.2234 9.47615,-6.2234 3.06631,0 5.31821,0.8095 6.76551,2.4334 m -6.2234,-234.68833 c 0,3.78997 -1.80789,5.68373 -5.41388,5.68373 -2.53155,0 -3.78996,-1.08425 -3.78996,-3.24783 0,-1.98454 0.90027,-2.97556 2.70571,-2.97556 1.803,0 2.70818,0.90517 2.70818,2.70571 0,0.54213 -0.0956,0.99103 -0.27229,1.35163 1.43994,-0.54211 2.16359,-1.80053 2.16359,-3.78997 0,-1.98451 -1.0818,-3.74089 -3.24785,-5.27405 -2.16604,-1.53316 -4.23887,-2.30587 -6.22339,-2.30587 -3.24784,0 -4.87177,1.17991 -4.87177,3.52258 0,1.26332 0.90028,2.61495 2.70572,4.05734 -0.54211,0.18153 -1.08179,0.27229 -1.62391,0.27229 -3.61335,0 -5.41389,-1.62391 -5.41389,-4.87175 0,-1.80055 0.98613,-3.42446 2.97556,-4.87177 -1.62393,0.72366 -3.24784,1.0818 -4.87177,1.0818 -2.34757,0 -4.59947,-0.94933 -6.76551,-2.84063 -2.16604,-1.89867 -3.34106,-4.01565 -3.52259,-6.36321 2.70818,2.52909 8.57096,4.78098 17.5982,6.76551 7.75655,1.80545 12.53755,4.51361 14.34545,8.12205 0.53967,0.90518 0.8144,1.89621 0.8144,2.978 m 30.85939,229.81663 0,0.5421 -52.78967,0 c -6.6772,0 -10.01335,2.4383 -10.01335,7.3101 l 0,4.8717 c -1.98698,-2.3475 -2.98045,-5.6861 -2.98045,-10.0182 0,-5.4139 3.52258,-8.1196 10.56039,-8.1196 l 37.6249,0 c 4.87175,0 7.85221,-1.0818 8.93646,-3.2479 l 0.53967,0 c 1.44239,2.3427 4.15057,5.2324 8.12205,8.6618 m 48.17793,-79.03981 -33.29281,33.29528 -4.32964,-4.60439 0,0.53968 c 0,7.75655 3.3386,15.06909 10.01828,21.93027 l -9.20386,0 -79.8542,-79.85418 0.26739,-0.27229 c 1.803,0.53968 3.88072,0.81442 6.2234,0.81442 2.52664,0 5.23236,-0.3655 8.12205,-1.08425 l 0.27229,0.26983 c -0.18153,1.08179 -0.27229,1.8962 -0.27229,2.43833 0,2.16604 1.17256,4.41795 3.52013,6.76552 l 24.90583,24.90338 c 0.53968,0.54212 1.16766,0.80949 1.8913,0.80949 0.90027,0 1.35654,-0.45134 1.35654,-1.35161 0,-0.36305 -0.36305,-0.90519 -1.0818,-1.62393 l -18.94982,-18.94737 c -2.16605,-2.16604 -3.24784,-4.78345 -3.24784,-7.84977 0,-1.80544 0.35815,-3.42936 1.08179,-4.87175 l 6.49815,0 c -0.36551,0.90028 -0.54213,2.07037 -0.54213,3.51767 0,2.34267 0.90026,4.4204 2.70571,6.2283 l 17.86804,17.86558 c 1.2584,1.44239 1.89129,3.06631 1.89129,4.87175 0,2.34268 -1.17256,4.7761 -3.51522,7.30765 l 2.1636,2.16358 c 2.70817,-2.88724 5.14159,-4.32963 7.30763,-4.32963 2.5242,0 4.60438,0.8095 6.22831,2.43343 l 6.22338,5.956 -7.84731,7.85223 9.20384,9.20384 c -0.3655,-1.26577 -0.54212,-2.70816 -0.54212,-4.33207 0,-8.48512 2.52419,-15.97183 7.57993,-22.46997 l 8.1196,0 c -3.42936,4.3321 -5.77692,8.7525 -7.0378,13.2661 l 3.51768,3.51768 16.50903,-16.78378 c 2.70817,-2.52419 4.06471,-4.69022 4.06471,-6.49077 0,-0.3655 -0.18388,-0.90763 -0.54212,-1.62391 l 0.54212,-0.54213 c 1.98206,0.54213 3.96658,0.8095 5.95355,0.8095 0.71875,0 2.6125,-0.0907 5.68372,-0.26737 l 0.53967,0.53966 z m -112.60488,41.957 c 0,-1.62392 -0.81441,-2.43834 -2.43833,-2.43834 -1.61902,0 -2.43341,0.81442 -2.43341,2.43834 0,1.4424 0.81439,2.16604 2.43341,2.16604 1.62392,0 2.43833,-0.72364 2.43833,-2.16604 M 150.19535,816.8764 c 0,-1.4424 -0.81442,-2.16605 -2.43344,-2.16605 -1.62391,0 -2.43832,0.72365 -2.43832,2.16605 0,1.62391 0.81441,2.43342 2.43832,2.43342 1.61902,0 2.43344,-0.80951 2.43344,-2.43342 m 52.51492,190.293 0,0.5421 -46.83365,0 0,-6.2234 c -5.95356,5.5906 -8.9291,13.2612 -8.9291,23.0048 l -6.49814,-6.4957 0,-113.14702 0.54211,0 c 1.80055,3.78997 5.23237,7.12366 10.28565,10.01336 l 0,0.54213 c -2.88724,1.44239 -4.32962,4.42284 -4.32962,8.934 l 0,34.9192 c 0,1.62391 0.54212,2.43342 1.62391,2.43342 1.0818,0 1.62392,-0.80951 1.62392,-2.43342 l 0,-26.52975 c 0,-5.41389 2.43342,-9.02479 7.30765,-10.82778 l 4.60436,4.60439 c -3.61334,1.44239 -5.41633,4.23641 -5.41633,8.38943 l 0,25.44551 c 0,4.87175 -2.61495,7.30763 -7.85222,7.30763 l -1.89129,0 0,2.98047 3.24783,0 c 2.16604,0 4.01565,0.8512 5.5488,2.57079 1.53316,1.71222 2.29851,3.74335 2.29851,6.09093 l 0,8.38944 -11.09514,0 0,12.99377 c 2.16603,-3.43178 5.77202,-6.4981 10.82775,-9.20382 4.50872,-2.53155 8.93157,-4.15546 13.26121,-4.87421 l 5.68862,5.68863 c -5.41633,0.71875 -10.20224,2.1636 -14.35035,4.32964 l 0,5.14156 23.55175,0 c 4.33209,0 7.1261,-1.0818 8.38944,-3.24781 l 0.54213,0 c 1.26085,2.34261 3.88072,5.23231 7.8522,8.66171 M 129.08193,838.25964 c 0,-1.62637 -0.72365,-2.43587 -2.16605,-2.43587 -1.62391,0 -2.43342,0.8095 -2.43342,2.43587 0,1.62393 0.80951,2.43834 2.43342,2.43834 1.4424,0 2.16605,-0.81441 2.16605,-2.43834 m -4.87421,117.47665 c 0,-1.62393 -0.8095,-2.43342 -2.43343,-2.43342 -1.80544,0 -2.70571,0.90026 -2.70571,2.70816 0,1.62391 0.90027,2.43342 2.70571,2.43342 1.62393,0 2.43343,-0.90518 2.43343,-2.70816 m 20.30636,71.73701 c -2.70817,-2.5291 -8.57587,-4.7859 -17.5982,-6.7679 -7.76145,-1.8079 -12.54244,-4.5137 -14.34543,-8.1221 -0.54213,-0.9052 -0.81442,-1.8913 -0.81442,-2.9755 0,-3.79 1.80299,-5.6862 5.41388,-5.6862 2.5242,0 3.78997,1.0818 3.78997,3.2478 0,1.9845 -0.90517,2.9805 -2.70572,2.9805 -1.80789,0 -2.70817,-0.9052 -2.70817,-2.7082 0,-0.5397 0.0907,-0.9959 0.2723,-1.3541 -1.44485,0.5397 -2.1636,1.8006 -2.1636,3.79 0,1.9821 1.0818,3.7409 3.24784,5.279 2.16605,1.5282 4.23396,2.2985 6.2234,2.2985 3.24783,0 4.87175,-1.1726 4.87175,-3.5153 0,-1.2657 -0.90518,-2.6223 -2.70571,-4.0622 0.53967,-0.1839 1.08179,-0.2698 1.62391,-0.2698 3.60844,0 5.41389,1.6239 5.41389,4.8717 0,1.803 -0.99103,3.4269 -2.97555,4.8742 1.62392,-0.7236 3.24784,-1.0842 4.87176,-1.0842 2.34267,0 4.59948,0.9444 6.76551,2.8431 2.16605,1.8913 3.33861,4.0132 3.52259,6.3607 m -1.89866,-257.15827 c 0,3.25028 -1.44731,4.87421 -4.32964,4.87421 -2.16604,0 -3.25029,-0.99349 -3.25029,-2.98046 0,-1.62392 0.90272,-2.43343 2.70816,-2.43343 1.4424,0 2.34268,0.72365 2.70573,2.1636 0.17917,-0.71875 0.27473,-1.25842 0.27473,-1.62392 0,-3.06632 -1.98942,-4.60439 -5.95601,-4.60439 -6.13753,0 -9.20384,2.0802 -9.20384,6.22831 0,2.34756 1.80053,3.43181 5.41388,3.25029 -1.08179,1.80544 -2.70571,2.70571 -4.87176,2.70571 -3.07121,0 -4.60437,-1.80054 -4.60437,-5.41389 0,-0.54211 0.0907,-0.99103 0.27228,-1.35653 -1.98696,4.15547 -5.14651,6.2283 -9.47613,6.2283 -3.07123,0 -5.32313,-0.81442 -6.76552,-2.43834 3.78997,0.18388 8.8825,-1.57486 15.29232,-5.27406 6.40246,-3.6992 10.96269,-5.5537 13.67086,-5.5537 5.41388,0 8.1196,2.08018 8.1196,6.2283 m -3.78996,227.10841 c -0.53968,1.80299 -0.80951,3.52256 -0.80951,5.14646 0,-0.1815 0.17661,2.1661 0.54212,7.0379 l -0.27229,0.5421 -41.689606,-41.68719 24.905836,-24.90582 6.49567,6.49813 c 1.62392,1.62391 2.43833,3.69919 2.43833,6.22339 0,2.16604 -1.35408,4.60437 -4.06225,7.31009 1.62392,1.26087 3.15708,1.89376 4.60438,1.89376 0.3606,0 0.80951,-0.0909 1.35163,-0.26984 l 0.27229,0.26984 c -0.54212,2.16604 -0.81441,4.14811 -0.81441,5.956 0,0.71875 0.17662,2.70573 0.54212,5.95357 l -0.54212,0.54213 -17.59328,-17.59329 -2.16605,2.16604 17.86803,17.59328 c 2.52419,2.70572 4.69023,4.06226 6.49568,4.06226 0.36058,0 0.90026,-0.0956 1.62392,-0.27229 l 0.54212,0.27229 c -0.54212,1.62391 -0.81442,3.24784 -0.81442,4.87175 0,-0.53967 0.17663,1.89376 0.54213,7.30765 l -0.26983,0.54212 -30.31727,-30.31971 -2.16604,2.43833 24.63109,24.63109 c 2.70817,2.52664 4.87176,3.78996 6.49569,3.78996 0.3606,0 0.99347,-0.0909 1.89865,-0.26738 l 0.26739,0.26738 z m 17.86557,-106.1092 -0.53967,0 c -1.80791,-3.78751 -5.23726,-7.12856 -10.2881,-10.01826 l 0,-0.53967 c 2.88479,-1.4424 4.33209,-4.41795 4.33209,-8.93155 l 0,-34.91674 c 0,-1.62392 -0.54212,-2.43834 -1.62392,-2.43834 -1.08179,0 -1.62391,0.81442 -1.62391,2.43834 l 0,26.52239 c 0,5.41388 -2.43344,9.02723 -7.30765,10.82777 l -4.60438,-4.59947 c 3.60844,-1.44239 5.41389,-4.23888 5.41389,-8.39434 l 0,-25.4406 c 0,-4.87177 2.6174,-7.3101 7.85466,-7.3101 l 1.89131,0 0,-2.97555 -3.24783,0 c -2.16606,0 -4.02056,-0.85857 -5.54882,-2.57325 -1.53806,-1.71469 -2.2985,-3.7409 -2.2985,-6.08847 l 0,-8.39435 11.09515,0 0,-12.99381 c -2.16605,3.42936 -5.64448,6.45398 -10.42056,9.06893 -4.78591,2.6174 -9.33878,4.28793 -13.66841,5.00668 l -5.68863,-5.68128 c 5.41389,-0.71874 10.19734,-2.16603 14.35035,-4.33207 l 0,-5.14406 -23.55419,0 c -4.32964,0 -7.12858,1.0818 -8.38698,3.24784 l -0.54213,0 c -1.26577,-2.34266 -3.885631,-5.23235 -7.85222,-8.66171 l 0,-0.54213 46.8312,0 0,6.22829 c 5.95602,-5.59052 8.93157,-13.2661 8.93157,-23.01208 l 6.49568,6.49814 0,113.14945 z m -62.25845,64.69679 c 0,-1.62638 -0.809508,-2.44078 -2.435872,-2.44078 -1.805456,0 -2.705723,0.8144 -2.705723,2.44078 0,1.80053 0.900267,2.70571 2.705723,2.70571 1.626364,0 2.435872,-0.90518 2.435872,-2.70571 m -1.084258,-84.7284 c 0,-1.80055 -0.905166,-2.70572 -2.705712,-2.70572 -1.623914,0 -2.433422,0.90517 -2.433422,2.70572 0,1.62636 0.900279,2.43587 2.705712,2.43587 1.623926,0 2.433422,-0.80951 2.433422,-2.43587 m -0.267379,-29.77515 c 0,-1.80298 -0.814418,-2.70816 -2.438333,-2.70816 -1.807894,0 -2.708161,0.90518 -2.708161,2.70816 0,1.62393 0.900267,2.43834 2.708161,2.43834 1.623915,0 2.438333,-0.81441 2.438333,-2.43834 m -1.898653,78.22783 c 0,-1.44486 -0.809508,-2.1636 -2.433422,-2.1636 -1.623926,0 -2.438345,0.71874 -2.438345,2.1636 0,1.62636 0.814419,2.44078 2.438345,2.44078 1.623914,0 2.433422,-0.81442 2.433422,-2.44078 m 55.49538,-142.65477 c 0,5.41389 -3.52013,8.12205 -10.55793,8.12205 l -37.624913,0 c -4.871755,0 -7.852217,1.17746 -8.936463,3.52013 l -0.539668,0 c -1.447295,-2.52418 -4.155468,-5.50465 -8.122057,-8.93402 l 0,-0.54211 52.789661,0 c 6.67231,0 10.01337,-2.43344 10.01337,-7.30764 l 0,-4.87177 c 1.98206,2.34757 2.978,5.68126 2.978,10.01336 m -11.10005,69.571 -8.93156,0 c -2.34758,0 -4.37871,-0.76536 -6.09339,-2.30341 -1.71468,-1.52826 -2.56834,-3.38276 -2.56834,-5.54881 l 0,-2.70572 c -2.70572,0.36305 -4.51362,1.35408 -5.41388,2.98046 l -0.54213,0 c -1.26333,-2.34267 -3.88564,-5.23235 -7.85223,-8.66419 l 0,-0.53966 24.90584,0 0,-2.98047 -25.44551,0 c -4.332073,0 -7.040246,1.08181 -8.122043,3.24785 l -0.542129,0 c -1.081797,-1.62392 -3.971488,-4.5087 -8.661725,-8.66173 l 0,-0.8095 42.771407,0 0,-2.98046 -35.191479,0 c -4.332087,0 -7.037799,1.0818 -8.122045,3.24784 l -0.539668,0 c -1.084258,-1.80054 -3.9715,-4.69023 -8.664186,-8.66172 l 0,-0.80951 59.013068,0 0,35.18903 z m -65.776134,52.24264 c 0,-1.62392 -0.814408,-2.43834 -2.440784,-2.43834 -1.439946,0 -2.163596,0.81442 -2.163596,2.43834 0,1.62391 0.72365,2.43342 2.163596,2.43342 1.626376,0 2.440784,-0.80951 2.440784,-2.43342 m 27.336806,21.11586 c 0,2.34267 -0.765347,4.36889 -2.298514,6.08848 -1.533144,1.70978 -3.382749,2.57325 -5.548793,2.57325 l -2.708172,0 c 0.36061,2.70571 1.351636,4.50871 2.975551,5.41388 l 0,0.54213 c -2.347562,1.25841 -5.234804,3.87582 -8.661725,7.84731 l -0.542117,0 0,-24.90338 -2.975551,0 0,25.4455 c 0,4.32963 1.084235,7.03781 3.25029,8.1196 l 0,0.54212 c -1.623926,1.08181 -4.513617,3.9666 -8.664186,8.66174 l -0.814407,0 0,-42.76896 -2.973102,0 0,35.18903 c 0,4.33209 1.081795,7.0378 3.247841,8.12204 l 0,0.54213 c -1.807894,1.0818 -4.69514,3.96658 -8.664175,8.66173 l -0.814415,0 0,-59.01307 35.191475,0 0,8.93647 z m -5.141584,95.55376 c -2.529103,-2.5291 -8.119607,-5.0558 -16.781331,-7.58 -7.579936,-1.9894 -12.18431,-4.8717 -13.80823,-8.6617 -0.360601,-0.72365 -0.542125,-1.53806 -0.542125,-2.43833 0,-3.78996 1.805445,-5.68372 5.413884,-5.68372 2.347577,0 3.52258,1.08425 3.52258,3.24785 0,1.80299 -0.814408,2.70816 -2.440784,2.70816 -1.805446,0 -2.705715,-0.90517 -2.705715,-2.70816 0,-0.36306 0.181524,-0.81442 0.542119,-1.35409 -1.80299,0.53967 -2.708165,1.8962 -2.708165,4.06225 0,1.98451 1.084251,3.74094 3.247841,5.27404 2.166044,1.5332 4.241324,2.3059 6.228293,2.3059 3.066322,0 4.599477,-1.0843 4.599477,-3.2479 0,-1.2657 -0.809507,-2.62227 -2.433422,-4.06466 0.542118,-0.18152 0.988577,-0.26738 1.351625,-0.26738 3.42691,0 5.146506,1.62392 5.146506,4.87174 0,1.803 -0.998398,3.4269 -2.980462,4.8742 1.442396,-0.5421 2.884792,-0.8144 4.329626,-0.8144 2.526654,0 4.830067,0.9911 6.905351,2.978 2.075284,1.9845 3.112932,4.1506 3.112932,6.4982 m 5.413873,-218.45165 c 0,3.43183 -1.444846,5.14651 -4.329638,5.14651 -1.989412,0 -2.98045,-0.99348 -2.98045,-2.98046 0,-1.80054 0.814407,-2.70817 2.438333,-2.70817 1.442396,0 2.342663,0.72365 2.708161,2.16605 0.358149,-0.53967 0.539679,-1.0818 0.539679,-1.62393 0,-2.88478 -1.986974,-4.33207 -5.953563,-4.33207 -2.166032,0 -4.287927,0.59117 -6.363199,1.76373 -2.075296,1.17502 -3.115382,2.74987 -3.115382,4.73439 0,2.5291 1.898653,3.7041 5.688623,3.52013 -1.084258,1.8079 -2.708173,2.70817 -4.874216,2.70817 -3.610889,0 -5.234804,-2.2568 -4.871755,-6.77042 -1.805445,4.69515 -5.053297,7.03781 -9.745977,7.03781 -2.88724,0 -5.053284,-0.71875 -6.495679,-2.1636 3.966584,-0.17897 9.154783,-2.34511 15.567068,-6.49814 6.400011,-4.14811 11.048536,-6.22338 13.935778,-6.22338 5.232354,0 7.852217,2.07527 7.852217,6.22338 m 15.969379,220.61765 c -0.53968,1.9821 -0.80951,3.9666 -0.80951,5.9536 0,0.7187 0.0859,2.7081 0.26983,5.956 l -0.54212,0.2698 -37.357534,-37.35752 c -2.529092,-2.52909 -5.053279,-3.78996 -7.579924,-3.78996 -1.805446,0 -4.420394,1.80054 -7.847317,5.41388 0.179177,-3.07121 1.802996,-6.13752 4.874222,-9.20385 1.43994,-1.4473 3.157075,-2.16604 5.139147,-2.16604 2.708161,0 5.413872,1.26087 8.122045,3.78996 l 26.527291,26.80203 c 2.88479,2.7082 5.32314,4.0574 7.31256,4.0574 0.35814,0 0.80951,-0.091 1.35163,-0.2674 l 0.53968,0.5421 z m 25.17811,-105.84181 -0.27229,0.26983 c -1.08424,-0.18388 -1.89375,-0.26983 -2.43588,-0.26983 -2.1636,0 -4.42531,1.1701 -6.76797,3.51768 l -24.90584,24.90337 c -0.53967,0.54213 -0.8095,1.17501 -0.8095,1.89866 0,0.90026 0.44645,1.34919 1.35163,1.34919 0.35815,0 0.90027,-0.36305 1.62393,-1.0818 l 18.94982,-18.94983 c 2.16604,-2.16359 4.781,-3.24784 7.85222,-3.24784 1.80054,0 3.42446,0.3606 4.87176,1.08425 l 0,6.49569 c -0.90519,-0.36306 -2.07774,-0.54213 -3.52013,-0.54213 -2.34757,0 -4.42285,0.90027 -6.22339,2.70818 l -17.86804,17.86556 c -1.44484,1.26087 -3.07122,1.89131 -4.87175,1.89131 -2.34758,0 -4.7859,-1.17256 -7.31009,-3.51523 l -2.166044,2.16605 c 2.884792,2.70571 4.329624,5.13915 4.329624,7.30519 0,2.52418 -0.809494,4.60438 -2.43342,6.22829 l -5.956002,6.22339 -7.852228,-7.8473 -9.203854,9.20384 c 1.260878,-0.36305 2.708173,-0.54212 4.332087,-0.54212 8.480206,0 15.974274,2.52664 22.469967,7.57993 l 0,8.12206 c -4.332099,-3.43182 -8.661737,-5.7794 -12.993812,-7.03781 l -3.789981,3.51521 16.783793,16.51641 c 2.52419,2.70571 4.69022,4.05731 6.49813,4.05731 0.35814,0 0.90027,-0.1815 1.62391,-0.5421 l 0.53967,0.5421 c -0.53967,1.9845 -0.8144,3.9666 -0.8144,5.956 0,0.7188 0.0907,2.615 0.27473,5.6862 l -0.54211,0.5421 -33.297726,-33.29768 4.604377,-4.33209 -0.542129,0 c -7.761458,0 -15.069095,3.33861 -21.92537,10.01826 l 0,-9.20385 79.854188,-79.85418 0.26983,0.26983 c -0.54213,1.80053 -0.80951,3.88073 -0.80951,6.22829 0,2.5242 0.35814,5.22992 1.0818,8.11961 m -82.292524,68.212 c 0,2.88479 -0.723644,5.04838 -2.166039,6.49568 -0.181524,-3.97149 -2.34757,-9.15969 -6.49568,-15.55971 -4.155472,-6.41227 -6.223392,-11.05835 -6.223392,-13.94313 0,-5.23727 2.06792,-7.85222 6.223392,-7.85222 3.42446,0 5.14405,1.4424 5.14405,4.32964 0,1.98451 -0.99594,2.98045 -2.978004,2.98045 -1.807908,0 -2.708177,-0.81441 -2.708177,-2.43834 0,-1.44239 0.718745,-2.34756 2.166051,-2.70571 -0.723649,-0.3606 -1.265782,-0.54213 -1.62392,-0.54213 -2.889704,0 -4.332092,1.98207 -4.332092,5.95601 0,2.16359 0.583824,4.28793 1.758841,6.36076 1.172553,2.07528 2.749865,3.11538 4.739297,3.11538 2.524189,0 3.696743,-1.89866 3.52013,-5.68616 1.802989,1.08178 2.708163,2.70571 2.708163,4.87175 0,3.60844 -2.261709,5.23236 -6.770419,4.87176 4.690236,1.80299 7.037799,5.05084 7.037799,9.74597 m 46.828754,-109.08965 -6.498126,6.49813 c -1.623926,1.62392 -3.696749,2.43834 -6.223392,2.43834 -2.163594,0 -4.604376,-1.35655 -7.310099,-4.06471 -1.265777,1.62637 -1.893754,3.16443 -1.893754,4.60438 0,0.3655 0.08834,0.8095 0.269839,1.35163 l -0.269839,0.27475 c -2.163594,-0.54213 -4.153007,-0.81688 -5.953552,-0.81688 -0.723648,0 -2.708173,0.18388 -5.956016,0.54213 l -0.542125,-0.54213 17.593287,-17.59083 -2.166043,-2.16605 -17.593283,17.86558 c -2.705714,2.5291 -4.062256,4.69514 -4.062256,6.49568 0,0.3655 0.09067,0.90763 0.272291,1.62637 l -0.272291,0.53967 c -1.623919,-0.53967 -3.247839,-0.81441 -4.866855,-0.81441 0.539676,0 -1.898659,0.18153 -7.312544,0.54213 l -0.539669,-0.26739 30.317259,-30.31971 -2.438333,-2.16605 -24.631087,24.63109 c -2.529094,2.70817 -3.789965,4.87421 -3.789965,6.49813 0,0.36306 0.09086,0.99594 0.272284,1.89621 l -0.272284,0.26985 c -1.805451,-0.54213 -3.517676,-0.80952 -5.141597,-0.80952 0.176621,0 -2.166044,0.18153 -7.037811,0.53967 l -0.542126,-0.27228 41.684703,-41.68225 24.903384,24.89847 z m 46.28663,16.51639 -0.26738,0.26739 c -1.80789,-0.54213 -3.88072,-0.80951 -6.22339,-0.80951 -2.53155,0 -5.23727,0.36305 -8.12206,1.08179 l -0.27228,-0.27228 c 0.17661,-1.0818 0.27228,-1.89376 0.27228,-2.43344 0,-2.16603 -1.17745,-4.42284 -3.52258,-6.77042 l -24.90337,-24.90337 c -0.54213,-0.54213 -1.17256,-0.80951 -1.89131,-0.80951 -0.90763,0 -1.35654,0.44891 -1.35654,1.34918 0,0.36551 0.35815,0.90517 1.08179,1.62391 l 18.94984,18.94984 c 2.16604,2.16604 3.24783,4.78589 3.24783,7.85221 0,1.8079 -0.36305,3.43181 -1.08179,4.87421 l -6.49814,0 c 0.3606,-0.90272 0.54213,-2.07527 0.54213,-3.52258 0,-2.34266 -0.90518,-4.41795 -2.70818,-6.22339 L 98.762218,859.91518 c -1.263316,-1.44239 -1.891305,-3.06631 -1.891305,-4.87421 0,-2.34266 1.167657,-4.78099 3.515217,-7.30518 l -2.16358,-2.16605 c -2.708173,2.88479 -5.141607,4.33209 -7.30765,4.33209 -2.529092,0 -4.604377,-0.81442 -6.228291,-2.43835 l -6.223403,-5.956 7.847317,-7.8473 -9.203842,-9.20386 c 0.360588,1.26333 0.542118,2.70573 0.542118,4.32964 0,8.48511 -2.529092,15.96936 -7.579927,22.46504 l -8.122055,0 c 3.43182,-4.32963 5.774478,-8.66172 7.040261,-12.99136 l -3.517676,-3.78996 -16.50904,16.78132 c -2.708173,2.53156 -4.064708,4.69515 -4.064708,6.49815 0,0.36305 0.17917,0.90516 0.542119,1.62391 l -0.542119,0.54212 c -1.986968,-0.54212 -3.971489,-0.81441 -5.953554,-0.81441 -0.72365,0 -2.617411,0.0958 -5.683726,0.27229 l -0.542119,-0.54213 33.295266,-33.29281 4.329635,4.59947 0,-0.54212 c 0.178975,-7.75655 -3.161979,-15.06175 -10.018259,-21.92293 l 9.203857,0 79.854176,79.85419 z M 55.456047,815.79215 c 0,2.34756 -1.0818,3.51767 -3.247839,3.51767 -1.807907,0 -2.708177,-0.80951 -2.708177,-2.43342 0,-1.803 0.90027,-2.70818 2.708177,-2.70818 0.358138,0 0.809504,0.18153 1.351623,0.54213 -0.542119,-1.80054 -1.893755,-2.70817 -4.0598,-2.70817 -1.986969,0 -3.750717,1.08426 -5.278967,3.25029 -1.538066,2.16359 -2.300958,4.23888 -2.300958,6.22339 0,3.07123 1.084243,4.60438 3.250288,4.60438 1.258415,0 2.610047,-0.81442 4.057353,-2.43832 0.176614,0.53966 0.272284,0.99593 0.272284,1.35407 0,3.43182 -1.62392,5.1416 -4.871762,5.1416 -1.805445,0 -3.431813,-0.98612 -4.871753,-2.97554 0.539669,1.44728 0.809504,2.88968 0.809504,4.33208 0,2.52909 -0.949337,4.83006 -2.843084,6.89797 -1.896211,2.0802 -4.103962,3.11538 -6.630603,3.11538 2.526641,-2.52664 5.050831,-8.12205 7.579926,-16.78378 1.984526,-7.57993 4.871767,-12.17939 8.661727,-13.80332 0.718745,-0.35814 1.528249,-0.54212 2.435887,-0.54212 3.789958,0 5.686174,1.8079 5.686174,5.41389 m 86.349863,74.70768 c -3.78996,1.80791 -7.13348,5.23726 -10.01826,10.2881 l -0.54213,0 c -1.44484,-2.88479 -4.42039,-4.33209 -8.9291,-4.33209 l -34.9241,0 c -1.623914,0 -2.433433,0.54212 -2.433433,1.62392 0,1.08424 0.809519,1.62391 2.433433,1.62391 l 26.52975,0 c 5.41389,0 9.02234,2.4408 10.82778,7.31256 l -4.59947,4.59947 c -1.44731,-3.61334 -4.24379,-5.41389 -8.39435,-5.41389 l -25.445507,0 c -4.871755,0 -7.305188,-2.61741 -7.305188,-7.84731 l 0,-1.89866 -2.980451,0 0,3.24783 c 0,2.16606 -0.858567,4.01565 -2.568353,5.54881 -1.719596,1.53316 -3.745804,2.30587 -6.095829,2.30587 l -8.386986,0 0,-11.10251 -12.993817,0 c 3.424462,2.16603 6.449078,5.63957 9.068938,10.42056 2.610044,4.781 4.283024,9.34367 5.006681,13.67331 l -5.681271,5.68373 c -0.723644,-5.4139 -2.166039,-10.19488 -4.332091,-14.34545 l -5.146502,0 0,23.54929 c 0,4.32964 1.084245,7.12857 3.247842,8.38943 l 0,0.53968 c -2.347571,1.26577 -5.23481,3.88072 -8.661727,7.85468 l -0.539669,0 0,-46.82875 6.228294,0 c -5.597866,-5.95603 -13.268555,-8.93648 -23.012073,-8.93648 l 6.495678,-6.49568 113.151911,0 0,0.53967 z M 42.72961,866.6807 c 0,2.52909 -1.081795,3.78751 -3.247841,3.78751 -1.986969,0 -2.975556,-0.90027 -2.975556,-2.70571 0,-1.80055 0.902726,-2.70816 2.708178,-2.70816 0.542125,0 0.986124,0.0958 1.351629,0.27472 -0.542125,-1.44239 -1.807901,-2.16604 -3.789965,-2.16604 -1.989432,0 -3.748266,1.0818 -5.281425,3.24785 -1.533153,2.16604 -2.298508,4.24132 -2.298508,6.22338 0,3.24785 1.172562,4.87422 3.520133,4.87422 1.260864,0 2.612494,-0.90272 4.0598,-2.70816 0.17662,0.54211 0.272284,1.08179 0.272284,1.62391 0,3.61335 -1.62392,5.41389 -4.87176,5.41389 -1.807895,0 -3.431814,-0.98613 -4.874208,-2.97556 0.718737,1.62393 1.084248,3.25031 1.084248,4.87422 0,2.34756 -0.949333,4.59948 -2.845543,6.76306 -1.893759,2.16604 -4.015645,3.34597 -6.35831,3.52259 2.52419,-2.70818 4.776089,-8.57096 6.765518,-17.5982 1.800541,-7.75655 4.508707,-12.53755 8.119594,-14.34545 0.900269,-0.53967 1.898666,-0.8144 2.980461,-0.8144 3.789972,0 5.681271,1.80789 5.681271,5.41633 m -3.78751,90.95424 c -2.34757,1.4424 -5.237271,4.14811 -8.664182,8.11961 l -0.539672,0 0,-52.78232 c 0,-6.67965 -2.435875,-10.01826 -7.30764,-10.01826 l -4.871759,0 c 2.342664,-1.98942 5.68127,-2.97555 10.013356,-2.97555 5.41388,0 8.119601,3.51522 8.119601,10.55303 l 0,37.6249 c 0,4.87422 1.084251,7.85468 3.250296,8.93648 l 0,0.54211 z m 24.903383,-138.5925 c 0,2.70572 -1.265776,5.41388 -3.789965,8.11961 l -26.797144,26.52484 c -2.705713,2.88724 -4.062252,5.32557 -4.062252,7.3101 0,0.3655 0.09067,0.80949 0.272292,1.35162 l -0.539672,0.54213 c -1.98943,-0.54213 -3.973947,-0.81197 -5.956013,-0.81197 -0.723649,0 -2.708167,0.0932 -5.956005,0.26984 l -0.272292,-0.54213 37.355075,-37.35016 c 2.526639,-2.52664 3.789958,-5.05083 3.789958,-7.57992 0,-1.803 -1.805445,-4.42286 -5.413878,-7.85222 3.066315,0.18152 6.132624,1.80544 9.20385,4.87175 1.442396,1.44731 2.166046,3.16198 2.166046,5.14651 M 28.386619,920.54971 c 0,3.06631 -1.807905,4.59947 -5.41389,4.59947 -0.542123,0 -0.995933,-0.0907 -1.356532,-0.26738 4.14811,1.98452 6.228297,5.14161 6.228297,9.47123 0,3.06631 -0.814416,5.32313 -2.438335,6.77042 0.176622,-3.78996 -1.58222,-8.8923 -5.278965,-15.29722 -3.699203,-6.40491 -5.548805,-10.96269 -5.548805,-13.66841 0,-5.41389 2.075284,-8.12205 6.228298,-8.12205 3.247838,0 4.871757,1.4424 4.871757,4.33209 0,2.16359 -0.995933,3.24784 -2.98045,3.24784 -1.623928,0 -2.433432,-0.90518 -2.433432,-2.70816 0,-1.44486 0.718745,-2.34758 2.166044,-2.70573 -0.72365,-0.18151 -1.265773,-0.26982 -1.623919,-0.26982 -3.071219,0 -4.604379,1.98451 -4.604379,5.956 0,6.13263 2.075284,9.20385 6.228298,9.20385 2.342664,0 3.426912,-1.80544 3.247838,-5.41389 1.802993,1.08424 2.708175,2.70817 2.708175,4.87176"
       style="fill:#373535;fill-opacity:1;fill-rule:nonzero;stroke:none"
       id="path90"
       inkscape:connector-curvature="0" />
  </g>
</svg>
