<?xml version="1.0" encoding="UTF-8" standalone="no"?>
<!-- Created with Inkscape (http://www.inkscape.org/) -->

<svg
   xmlns:dc="http://purl.org/dc/elements/1.1/"
   xmlns:cc="http://creativecommons.org/ns#"
   xmlns:rdf="http://www.w3.org/1999/02/22-rdf-syntax-ns#"
   xmlns:svg="http://www.w3.org/2000/svg"
   xmlns="http://www.w3.org/2000/svg"
   xmlns:sodipodi="http://sodipodi.sourceforge.net/DTD/sodipodi-0.dtd"
   xmlns:inkscape="http://www.inkscape.org/namespaces/inkscape"
   width="32"
   height="32"
   id="svg2993"
   version="1.1"
   inkscape:version="0.48.4 r9939"
   sodipodi:docname="logo.svg">
  <defs
     id="defs2995" />
  <sodipodi:namedview
     id="base"
     pagecolor="#ffffff"
     bordercolor="#666666"
     borderopacity="1.0"
     inkscape:pageopacity="0.0"
     inkscape:pageshadow="2"
     inkscape:zoom="5.5"
     inkscape:cx="32"
     inkscape:cy="24.727273"
     inkscape:current-layer="layer1"
     showgrid="true"
     inkscape:document-units="px"
     inkscape:grid-bbox="true"
     inkscape:window-width="1301"
     inkscape:window-height="744"
     inkscape:window-x="65"
     inkscape:window-y="24"
     inkscape:window-maximized="1" />
  <metadata
     id="metadata2998">
    <rdf:RDF>
      <cc:Work
         rdf:about="">
        <dc:format>image/svg+xml</dc:format>
        <dc:type
           rdf:resource="http://purl.org/dc/dcmitype/StillImage" />
        <dc:title />
      </cc:Work>
    </rdf:RDF>
  </metadata>
  <g
     id="layer1"
     inkscape:label="Layer 1"
     inkscape:groupmode="layer"
     transform="translate(0,-32)">
    <path
       style="fill:#000000;fill-opacity:1;fill-rule:nonzero;stroke:none"
       id="path3001"
       d="m 1.750887,60.840763 c 0.391865,-0.818482 0.7446036,-1.654423 1.1409073,-2.47084 0.4555378,-0.996418 1.0449638,-1.920386 1.6780758,-2.811337 0.418962,-0.603733 0.871765,-1.182813 1.275021,-1.797309 0.431931,-0.689267 0.702734,-1.459962 0.972717,-2.222496 0.304979,-0.886482 0.616408,-1.77105 0.905322,-2.662925 0.171757,-0.642878 0.472204,-1.23015 0.770132,-1.819791 0.23767,-0.507568 0.519385,-0.992083 0.791174,-1.481627 0.344524,-0.617968 0.636881,-1.263106 0.9236159,-1.909331 0.313782,-0.745941 0.627416,-1.490916 0.97658,-2.221063 0.323167,-0.69783 0.638002,-1.39939 0.974364,-2.091027 0.224023,-0.401063 0.433492,-0.809431 0.647241,-1.21587 0.164724,-0.318764 0.33522,-0.633765 0.522699,-0.939681 0.166859,-0.263237 0.284435,-0.553773 0.414106,-0.836283 0.120601,-0.30642 0.240123,-0.613019 0.378684,-0.911865 0.07084,-0.125728 0.132805,-0.256008 0.194723,-0.386243 0,0 2.088686,-0.946021 2.088686,-0.946021 l 0,0 c -0.06736,0.130712 -0.119018,0.267091 -0.192817,0.394459 -0.173282,0.275193 -0.27279,0.593001 -0.388003,0.895581 -0.12343,0.293337 -0.257851,0.583037 -0.398311,0.868211 -0.199918,0.298751 -0.379121,0.608343 -0.53962,0.930267 -0.229948,0.401685 -0.411877,0.828508 -0.667452,1.216496 -0.359494,0.685829 -0.682841,1.389392 -0.998451,2.09635 -0.346341,0.72774 -0.672503,1.463459 -0.972469,2.21189 -0.283868,0.647092 -0.566234,1.296379 -0.89967,1.919865 -0.265683,0.489704 -0.54978,0.969376 -0.792885,1.47099 -0.28387,0.596089 -0.6405509,1.158394 -0.8125609,1.804329 -0.291689,0.893466 -0.608826,1.778693 -0.907575,2.66988 -0.268465,0.767561 -0.517243,1.549173 -0.924206,2.257949 -0.399541,0.633201 -0.868182,1.214658 -1.303768,1.822932 -0.643929,0.878058 -1.251657,1.785763 -1.70302,2.780947 -0.389868,0.793663 -0.737253,1.605878 -1.068613,2.425618 0,0 -2.0846271,0.957945 -2.0846271,0.957945 z"
       inkscape:connector-curvature="0" />
    <path
       style="fill:#000000;fill-opacity:1;fill-rule:nonzero;stroke:none"
       id="path3003"
       d="m 16.388722,34.02499 c 0.114481,0.447834 0.28385,0.878325 0.477337,1.297361 0.223349,0.534546 0.450345,1.066686 0.650989,1.610296 0.18675,0.620628 0.383757,1.237251 0.586231,1.853065 0.24593,0.803129 0.497123,1.604571 0.754948,2.40398 0.285662,0.935955 0.505731,1.889019 0.738768,2.838713 0.186955,0.905988 0.433847,1.797906 0.632037,2.70125 0.19741,0.908548 0.404141,1.815096 0.598512,2.724296 0.214995,0.944076 0.401467,1.89462 0.651302,2.830387 0.251756,0.878493 0.557835,1.741246 0.872819,2.598958 0.310684,0.795935 0.602133,1.597693 0.889725,2.402133 0.219115,0.60204 0.463019,1.195038 0.681439,1.797175 0.165092,0.433975 0.376855,0.848369 0.584834,1.262992 0.184686,0.39273 0.377354,0.782362 0.50851,1.196726 0.05842,0.122143 0.0836,0.261729 0.15663,0.377275 0.0064,0.01013 0.02902,0.03536 0.02723,0.02352 -0.0058,-0.03808 -0.0057,-0.125988 -0.04006,-0.108405 -0.691784,0.354033 -1.346886,0.775231 -2.02033,1.162847 0.08,-0.229048 0.05661,-0.493354 0.05836,-0.734385 0.01886,-0.352156 -0.01197,-0.698053 -0.0633,-1.045849 -0.06676,-0.387153 -0.07894,-0.779071 -0.08486,-1.170841 -0.006,-0.63248 0.0022,-1.265089 0.0066,-1.897585 0.01187,-0.898953 -0.0072,-1.798265 0.02587,-2.696751 0.06587,-1.060485 0.264386,-2.103325 0.487832,-3.139938 0.279719,-1.23251 0.587148,-2.458624 0.900052,-3.683111 0.300514,-1.147445 0.628598,-2.287432 0.9548,-3.427799 0.284925,-1.046141 0.486491,-2.111659 0.729448,-3.167701 0.224166,-0.882366 0.442729,-1.766891 0.703922,-2.639289 0.121417,-0.494221 0.306792,-0.966989 0.467528,-1.448531 0.142822,-0.429015 0.270029,-0.863791 0.448468,-1.279756 0.173256,-0.320992 0.265958,-0.671488 0.371105,-1.017751 0.01427,-0.05208 0.02854,-0.10416 0.04281,-0.15624 0,0 2.127549,-1.015111 2.127549,-1.015111 l 0,0 c -0.01315,0.05498 -0.02631,0.109948 -0.03947,0.164922 -0.104835,0.356656 -0.191924,0.721465 -0.365768,1.053023 -0.202528,0.39937 -0.316487,0.831265 -0.464843,1.252379 -0.141921,0.493317 -0.366324,0.959494 -0.48953,1.459651 -0.284677,0.869556 -0.523159,1.752671 -0.745666,2.639922 -0.24792,1.060142 -0.448997,2.130869 -0.733833,3.182317 -0.324613,1.141759 -0.657486,2.281212 -0.966732,3.42727 -0.318564,1.218202 -0.618066,2.441544 -0.894516,3.669955 -0.217648,1.022663 -0.410951,2.050363 -0.484416,3.095088 -0.03959,0.892873 -0.01205,1.78689 -0.01408,2.680432 0.0041,0.626273 0.0081,1.252533 0.01923,1.878729 0.01079,0.381045 0.02416,0.762833 0.08032,1.140489 0.05217,0.357007 0.107838,0.711329 0.08491,1.073746 7.99e-4,0.268015 -0.0017,0.536055 2.5e-5,0.804018 -1.911919,1.167909 -1.884969,1.931691 -2.350894,0.669814 C 22.835544,62.262398 22.65033,61.882338 22.467833,61.502593 22.260058,61.07734 22.038592,60.657049 21.87735,60.211081 21.666684,59.604667 21.437187,59.00464 21.219898,58.400489 20.936824,57.594628 20.653442,56.790052 20.341679,55.994567 20.026986,55.129151 19.711392,54.262361 19.462227,53.375459 19.21475,52.435184 19.023234,51.482224 18.806549,50.534652 18.613802,49.626242 18.400412,48.722243 18.200691,47.815345 18.00645,46.912255 17.768569,46.019067 17.581742,45.114226 17.34839,44.170528 17.132557,43.222485 16.847488,42.292283 16.584613,41.496496 16.323309,40.700194 16.067719,39.902044 15.868295,39.28865 15.662517,38.677669 15.475109,38.060638 15.28433,37.521045 15.054693,36.99771 14.831918,36.470751 14.62904,36.047154 14.460135,35.610717 14.314529,35.164269 c 0,0 2.074166,-1.139279 2.074166,-1.139279 z"
       inkscape:connector-curvature="0" />
    <path
       style="fill:#000000;fill-opacity:1;fill-rule:nonzero;stroke:none"
       id="path3005"
       d="m 8.7027031,50.734117 c 0.843023,-0.487482 -0.830772,0.480604 -1.585646,0.910307 -0.0783,0.04458 0.154295,-0.09308 0.230857,-0.140577 0.247325,-0.153426 0.491258,-0.312217 0.738331,-0.466072 0.09045,-0.05405 0.180133,-0.109415 0.271356,-0.162154 0.736985,-0.426087 1.470991,-0.85745 2.2132349,-1.274306 0.388533,-0.218208 0.835278,-0.359126 1.247784,-0.524195 0.741275,-0.233954 1.494263,-0.432568 2.248577,-0.620261 0.572761,-0.146754 1.128909,-0.351645 1.705331,-0.483878 0.348521,-0.09242 0.685443,-0.228253 1.038169,-0.30234 0.399874,-0.08586 0.797276,-0.16558 1.204878,-0.206244 0.371499,-0.03278 0.744605,-0.039 1.117325,-0.03854 0.353934,1.86e-4 0.707866,2.53e-4 1.0618,2.91e-4 0.208951,-0.02014 0.404667,0.01462 0.606719,0.06077 0,0 -1.883153,1.313201 -1.883153,1.313201 l 0,0 c -0.191125,-0.03092 -0.382235,-0.03327 -0.57578,-0.02876 -0.352517,-0.0012 -0.705045,-0.0036 -1.057558,-6.76e-4 -0.366506,0.0061 -0.733689,0.01186 -1.098181,0.05487 -0.402131,0.05299 -0.796981,0.142344 -1.191831,0.234212 -0.343435,0.101835 -0.685397,0.208899 -1.033172,0.295654 -0.561668,0.143153 -1.112548,0.326069 -1.67567,0.464395 -0.75078,0.194241 -1.506785,0.379794 -2.235221,0.648158 -0.3185139,0.129256 -0.6386259,0.255779 -0.9482889,0.405552 -0.09647,0.04666 -0.378521,0.200822 -0.286376,0.146108 0.456444,-0.271025 2.4088339,-1.395161 1.3782269,-0.797901 -1.0876579,0.661466 -2.1295569,1.40112 -3.2859859,1.947647 0,0 1.794274,-1.43525 1.794274,-1.43525 z"
       inkscape:connector-curvature="0" />
  </g>
</svg>
